<svg height="128" viewBox="0 0 1024 1024" width="128" xmlns="http://www.w3.org/2000/svg"><g fill="#064095"><path d="m626.467215 93.967481 268.462995 278.05096 95.879641-95.879641-175.779342-188.563295c-57.527785-51.135808-105.467605-70.311736-105.467605-70.311736-147.01545-47.939821-233.307127 19.175928-233.307127 19.175928 105.467605 3.195988 150.211438 57.527785 150.211438 57.527784z"/><path d="m763.8947 541.405807c-31.95988-3.195988-38.351856 12.783952-38.351856 12.783952l-210.935211 214.131198c-15.97994 22.371916-31.95988-6.391976-31.95988-6.391976l-201.347246-204.543234c-15.97994-9.587964-3.195988-31.95988-3.195988-31.959881l204.543234-214.131198c12.783952-22.371916 31.95988 3.195988 31.95988 3.195988l204.543235 201.347246c15.97994 25.567904 31.95988 0 31.95988 0l111.859581-108.663593-310.010839-316.402816c-131.035509-92.683653-294.030899 31.95988-294.030899 31.959881-220.523175 134.231497-226.915151 383.518564-226.915151 383.518564-3.195988 373.9306 281.246947 473.006229 281.246947 473.006229 294.0309 134.231498 508.162098-83.095688 508.162098-83.095688 166.191378-137.427486 156.603414-357.95066 156.603414-357.950661h-214.131199z"/></g></svg>