<svg height="128" viewBox="0 0 1137 1024" width="142.125" xmlns="http://www.w3.org/2000/svg"><path d="m559.275 405.22a2439.339 2439.339 0 0 1 -150.699 260.323c-142.62 8.59-281.884 29.924-408.576 64.512 180.964-197.745 330.752-455.51 409.77-711.111h.285c34.361 126.692 85.561 258.276 149.22 386.276" fill="#bd0016"/><path d="m408.52 665.43a2443.036 2443.036 0 0 1 301.34.739c79.53 119.922 168.618 230.286 262.77 322.617-262.202-59.05-561.608-60.473-823.922-1.252l-.228-.398 4.38-4.324 4.324-4.38 4.324-4.38 4.323-4.38 4.324-4.495 4.323-4.608 4.267-4.437 4.323-4.552 4.324-4.55 4.267-4.552 4.21-4.55 4.266-4.78 4.267-4.55 4.266-4.722 4.267-4.78 4.267-4.664 4.266-4.722 4.153-4.835 4.153-4.722 4.153-4.779 4.153-4.835 4.21-4.893 4.266-4.835 4.096-4.836a2273.735 2273.735 0 0 0 157.868-210.545" fill="#730000"/><path d="m709.86 666.112a2428.814 2428.814 0 0 1 -150.585-260.836c63.715-128 114.63-259.356 147.854-386.332 81.408 256.683 230.912 516.153 414.151 712.42l-.228.398c-127.43-34.361-267.605-56.377-411.192-65.65" fill="#e5001f"/><path d="m709.916 666.112c143.531 9.273 283.762 31.289 411.193 65.65l-148.423 256.967c-94.15-92.33-183.239-202.695-262.77-322.617" fill="#bd0016"/><path d="m408.576 665.43c-79.019 118.897-167.31 228.863-260.096 321.706l-148.48-257.024c126.692-34.645 265.956-56.036 408.576-64.683" fill="#e5001f"/><path d="m707.129 19c-33.223 126.977-84.139 258.276-147.911 386.22-63.659-128-114.859-259.528-149.106-386.22z" fill="#730000"/></svg>