<svg height="128" viewBox="0 0 1024 1024" width="128" xmlns="http://www.w3.org/2000/svg"><path d="m519.1 156.3-6.2-.2v.3c-161.9 4.9-385.2 50.5-427.6 200-1.4 5.8-2.8 10.2-2.8 14.6v20.4c8.5 86.4 132.2 185.6 335.6 185.6l-109.5 67.3 194.8 102.2 12.8-5.8 206.3-103.7-209.5-89.1-16.6-7.3s-298.7 11.7-273.1-201.6c31.1-85.6 163.9-136.8 293.9-140.3 141.9-4.2 286.5 51.4 306.3 181.1h136.5c1.4-172.4-293-227.9-440.9-223.5zm-85.3 488 76.8-46.8 88.2 46.8-85.4 45.3z" fill="#00a75a"/><path d="m607.3 447 108.1-65.7-193.4-103.7-219.1 109.6 206.2 89.1 18.5 7.3s298.7-10.2 274.5 201.6c-32.7 86.2-162.1 137.4-293 140.2-143.6 3-287.3-52.5-307.2-181.1h-137.9c0 172.4 294.4 226.4 442.3 223.5l2.8-.1c162.1-6.1 388.4-50.1 430.9-200.1 1.4-4.4 2.9-8.8 2.9-14.7v-18.9c-8.5-87.6-133.7-185.5-335.6-187zm-15.7-65.7-77.9 46.2-87.1-46.2 85.4-46.8z" fill="#0070bf"/></svg>