<svg height="128" viewBox="0 0 1024 1024" width="128" xmlns="http://www.w3.org/2000/svg"><path d="m906.3 929.9c-.7.9-2.3 1.1-3.1 1.1h-782.2c-.8 0-2.4-.1-3.1-1.1-.6-.7-.8-2-.4-3.6l9.3-45.9c.9-4.6 6.4-9 11.3-9h748.1c4.9 0 10.3 4.4 11.3 9l9.3 45.8c.2 1.7.1 3-.5 3.7zm-716.6-523h644.3v435.8h-54.1v-314.6c0-38.9-31.6-70.5-70.5-70.5s-70.5 31.6-70.5 70.5v314.6h-56.6v-314.6c0-38.9-31.6-70.5-70.5-70.5s-70.5 31.6-70.5 70.5v314.6h-56.6v-314.6c0-38.9-31.6-70.5-70.5-70.5s-70.5 31.6-70.5 70.5v314.6h-54.1v-435.8z" fill="#fff"/><path d="m189.7 406.9h614.3v435.8h-24.1v-314.6c0-38.9-31.6-70.5-70.5-70.5s-70.5 31.6-70.5 70.5v314.6h-56.6v-314.6c0-38.9-31.6-70.5-70.5-70.5s-70.5 31.6-70.5 70.5v314.6h-56.6v-314.6c0-38.9-31.6-70.5-70.5-70.5s-70.5 31.6-70.5 70.5v314.6h-54.1v-435.8z" fill="#f7df8a"/><path d="m513 97.1 348.5 280.6h-697z" fill="#fff"/><path d="m473 97.1 348.5 280.6h-657z" fill="#f7df8a"/><path d="m876.3 929.9c-.7.9-2.2 1.1-3.1 1.1h-771.5c-.8 0-2.3-.1-3.1-1.1-.6-.7-.7-2-.4-3.6l9.2-45.9c.9-4.6 6.3-9 11.1-9h738c4.8 0 10.2 4.4 11.1 9l9.2 45.8c.2 1.7.1 3-.5 3.7z" fill="#65d5ef"/><path d="m545.4 335.3h31.3c8 0 14.5-6.5 14.5-14.5s-6.5-14.5-14.5-14.5h-31.3c-8 0-14.5 6.5-14.5 14.5s6.5 14.5 14.5 14.5z" fill="#274359"/><path d="m935.1 920.6-9.3-45.9c-3.7-18.1-21.1-32.2-39.7-32.2h-22.9v-435.8h38.5c6.2 0 11.6-3.9 13.7-9.7 2-5.8.2-12.3-4.6-16.1l-389.7-313.7c-5.3-4.3-12.9-4.3-18.2 0l-389.7 313.7c-4.8 3.9-6.6 10.3-4.6 16.1s7.5 9.7 13.7 9.7h38.5v435.8h-22.8c-18.6 0-36 14.1-39.7 32.2l-9.3 45.9c-2.1 10.1.3 20.2 6.4 27.7 6.1 7.4 15.4 11.7 25.6 11.7h782.1c10.2 0 19.5-4.3 25.6-11.7 6.1-7.5 8.4-17.6 6.4-27.7zm-719-585.3h266.6c8 0 14.5-6.5 14.5-14.5s-6.5-14.5-14.5-14.5h-230.5l259.8-209.2 348.5 280.6h-697zm-26.2 71.4h644.3v435.8h-54.2v-314.6c0-38.9-31.6-70.5-70.5-70.5s-70.5 31.6-70.5 70.5v314.6h-56.6v-314.6c0-38.9-31.6-70.5-70.5-70.5s-70.5 31.6-70.5 70.5v314.6h-56.6v-314.6c0-38.9-31.6-70.5-70.5-70.5s-70.3 31.6-70.3 70.5v314.6h-54.1zm561.1 435.8h-82.9v-314.6c0-22.8 18.6-41.4 41.4-41.4s41.4 18.6 41.4 41.4v314.6zm-197.6 0h-82.9v-314.6c0-22.8 18.6-41.4 41.4-41.4s41.4 18.6 41.4 41.4v314.6zm-197.5 0h-82.9v-314.6c0-22.8 18.6-41.4 41.4-41.4s41.4 18.6 41.4 41.4v314.6zm550.3 87.4c-.7.9-2.3 1.1-3.1 1.1h-782.2c-.8 0-2.4-.1-3.1-1.1-.6-.7-.8-2-.4-3.6l9.3-45.9c.9-4.6 6.4-9 11.3-9h748c4.9 0 10.3 4.4 11.3 9l9.3 45.8c.3 1.7.2 3-.4 3.7z" fill="#274359"/><path d="m750.8 842.5h-82.9v-314.6c0-22.8 18.6-41.4 41.4-41.4s41.4 18.6 41.4 41.4v314.6zm-197.5 0h-82.9v-314.6c0-22.8 18.6-41.4 41.4-41.4s41.4 18.6 41.4 41.4v314.6zm-197.6 0h-82.9v-314.6c0-22.8 18.6-41.4 41.4-41.4s41.4 18.6 41.4 41.4v314.6z" fill="#e87a66"/></svg>