<svg height="128" viewBox="0 0 1024 1024" width="128" xmlns="http://www.w3.org/2000/svg"><path d="m6.607238 508.65981c0 277.296762 225.865143 502.076952 504.490667 502.076952 278.613333 0 504.490667-224.792381 504.490666-502.076952 0-277.296762-225.889523-502.089143-504.490666-502.089143-278.625524.01219-504.490667 224.804571-504.490667 502.089143z" fill="#fff"/><g fill="#d71e06"><path d="m797.281524 547.718095v225.401905h-249.685334v-73.020952h170.886096v-82.444191h-170.886096v-225.121524h170.886096v-75.678476h-170.886096v-73.020952h249.685334v225.572571h-169.325714v75.580953h169.325714v2.742857zm-572.367238 0v225.401905h249.660952v-73.020952h-170.873905v-82.444191h170.886096v-225.121524h-170.886096v-75.678476h170.886096v-73.020952h-249.673143v225.572571h169.508571v75.580953h-169.508571v2.742857z"/><path d="m511.097905 0c-282.282667 0-511.097905 227.730286-511.097905 508.65981 0 280.917333 228.815238 508.659809 511.097905 508.659809 282.270476 0 511.085714-227.742476 511.085714-508.659809v.01219c-.292571-280.795429-228.924952-508.355048-511.073524-508.672zm0 918.454857c-227.413333 0-411.757714-183.466667-411.757715-409.795047s184.332191-409.795048 411.757715-409.795048c227.401143 0 411.757714 183.466667 411.757714 409.795048.24381 226.072381-183.710476 409.539048-410.855619 409.795047h-.914286z"/></g></svg>