<svg height="128" viewBox="0 0 1325 1024" width="165.625" xmlns="http://www.w3.org/2000/svg"><path d="m292.141176 558.682353-4.517647 25.6h131.011765l6.02353-25.6zm332.8 25.6 4.517648-25.6h-149.082353l-6.02353 25.6zm84.329412-123.482353-19.57647 99.388235-6.02353 25.6-19.57647 99.388236h-206.305883l-4.517647 24.094117h240.941177l31.623529-147.57647 19.576471-100.894118h290.635294l-21.082353 100.894118h-231.905882l-52.705883 248.470588h-301.17647l-4.517647 24.094118h335.811764l31.62353-146.070589 21.082353-100.894117h195.764705l-19.57647 100.894117h-137.035294l-30.117647 146.070589-22.588236 99.388235h-451.764705l52.705882-246.964706h-189.741177l21.082353-100.894118 4.517647-25.6 21.082353-100.894117h188.235294l52.705883-246.964706h206.305882l27.105883-121.976471h382.494117l-21.082353 99.388235h-325.270588l-4.517647 25.6-19.576471 100.894118h-207.811764l-6.02353 24.094118h243.952941l4.517647-24.094118 21.082353-99.388235h290.635295l-21.082353 99.388235h-231.905883l-27.105882 121.976471h-299.670588l-6.02353 24.094117h149.082353z" fill="#007e3e"/></svg>